# xmcd CD database file generated by OrangeCD 6.2
#
# Track frame offsets:
#	150
#	11190
#	24755
#	42655
#	59255
#	70292
#	81670
#	97735
#	113962
#	126600
#	143900
#	154082
#
# Disc length: 2240 seconds
#
# Revision: 2
# Processed by: cddbd v1.5.2PL0 Copyright (c) Steve Scherf et al.
# Submitted via: OrangeCD 6.2
#
DISCID=a908be0c
DTITLE=David Avery - Weekend Fisherman
DYEAR=1900
DGENRE=
TTITLE0=Campsite
TTITLE1=Combie Cossack Sway
TTITLE2=Weekend Fisherman
TTITLE3=When I Retire
TTITLE4=Where's Mal
TTITLE5=Moreton Magnum
TTITLE6=Ants In Me Esky
TTITLE7=Where's My Beer
TTITLE8=Margaret C*
TTITLE9=Pig's Arse
TTITLE10=Where's All The Fish
TTITLE11=Going Home
EXTD=
EXTT0=
EXTT1=
EXTT2=
EXTT3=
EXTT4=
EXTT5=
EXTT6=
EXTT7=
EXTT8=
EXTT9=
EXTT10=
EXTT11=
PLAYORDER=
